<?xml version="1.0" encoding="utf-8"?>
<!-- Generator: Adobe Illustrator 24.1.1, SVG Export Plug-In . SVG Version: 6.00 Build 0)  -->
<svg version="1.1" id="Layer_1" xmlns="http://www.w3.org/2000/svg" xmlns:xlink="http://www.w3.org/1999/xlink" x="0px" y="0px"
	 viewBox="0 0 184.9 18" style="enable-background:new 0 0 184.9 18;" xml:space="preserve">
<style type="text/css">
	.st0{fill:none;stroke:#E0E0E0;stroke-width:0.25;}
	.st1{fill:#4E4E4E;}
	.st2{opacity:0.94;fill-rule:evenodd;clip-rule:evenodd;fill:#2A2C83;enable-background:new    ;}
	.st3{fill-rule:evenodd;clip-rule:evenodd;fill:#097A44;}
	.st4{fill-rule:evenodd;clip-rule:evenodd;fill:#F46F20;}
	.st5{fill:#007BDB;}
	.st6{fill:#E42B00;}
	.st7{fill-rule:evenodd;clip-rule:evenodd;fill:#1740CE;}
	.st8{fill:#CC0000;}
	.st9{fill:#FF9900;}
	.st10{fill-rule:evenodd;clip-rule:evenodd;fill:#F16D27;}
	.st11{fill:#1A1F71;}
</style>
<path class="st0" d="M182.3,0.5h-34c-0.3,0-0.5,0.1-0.7,0.3c-0.2,0.2-0.3,0.4-0.3,0.7v14.7c0,0.3,0.1,0.5,0.3,0.7
	c0.2,0.2,0.4,0.3,0.7,0.3h34c0.3,0,0.5-0.1,0.7-0.3c0.2-0.2,0.3-0.4,0.3-0.7V1.5c0-0.3-0.1-0.5-0.3-0.7
	C182.8,0.6,182.6,0.5,182.3,0.5L182.3,0.5z"/>
<path class="st1" d="M162.9,7.8h-0.5l-1.4-2.3v2.3h-0.6V4.6h0.6l1.4,2.3V4.6h0.5V7.8z M165.4,6.4h-1.3v1h1.5v0.4h-2.1V4.6h2.1v0.5
	h-1.5V6h1.3V6.4z M168.4,5.1h-1v2.8h-0.6V5.1h-1V4.6h2.5L168.4,5.1z M160.3,12.8V9.6h1.1c0.3,0,0.6,0.1,0.8,0.2
	c0.1,0.1,0.2,0.2,0.2,0.3c0,0.1,0.1,0.2,0.1,0.4c0,0.1,0,0.3-0.1,0.4c-0.1,0.1-0.2,0.2-0.3,0.3c0.2,0,0.3,0.1,0.4,0.3
	c0.1,0.1,0.2,0.3,0.1,0.5c0,0.1,0,0.3-0.1,0.4c-0.1,0.1-0.1,0.2-0.2,0.3c-0.2,0.2-0.5,0.3-0.8,0.2H160.3z M160.9,11.4v1h0.6
	c0.1,0,0.3,0,0.4-0.1c0,0,0.1-0.1,0.1-0.2c0-0.1,0-0.1,0-0.2c0-0.1,0-0.1,0-0.2c0-0.1-0.1-0.1-0.1-0.2s-0.1-0.1-0.2-0.1
	c-0.1,0-0.1,0-0.2,0H160.9z M160.9,11h0.5c0.1,0,0.3,0,0.4-0.1c0,0,0.1-0.1,0.1-0.1c0-0.1,0-0.1,0-0.2c0-0.1,0-0.1,0-0.2
	c0-0.1-0.1-0.1-0.1-0.2c-0.1-0.1-0.3-0.1-0.4-0.1h-0.5V11z M165,12.1h-1.2l-0.3,0.7h-0.6l1.2-3.2h0.5l1.2,3.2h-0.6L165,12.1z
	 M163.9,11.7h0.9l-0.5-1.3L163.9,11.7z M168.7,12.8h-0.6l-1.4-2.3v2.3h-0.6V9.6h0.6l1.4,2.3V9.6h0.6V12.8z M170.3,11.5l-0.4,0.4v1
	h-0.6V9.6h0.6v1.5l0.3-0.4l0.9-1.1h0.7l-1.2,1.4l1.3,1.8h-0.7L170.3,11.5z M172.8,12.8h-0.5V9.6h0.5V12.8z M176,12.8h-0.5l-1.5-2.3
	v2.3h-0.6V9.6h0.6l1.4,2.3V9.6h0.6V12.8z M179.1,12.4c-0.1,0.2-0.3,0.3-0.5,0.4c-0.2,0.1-0.5,0.1-0.7,0.1c-0.2,0-0.5-0.1-0.7-0.2
	c-0.2-0.1-0.4-0.3-0.5-0.5c-0.1-0.2-0.2-0.5-0.2-0.8v-0.3c0-0.4,0.1-0.8,0.4-1.1c0.1-0.1,0.3-0.3,0.4-0.3c0.2-0.1,0.4-0.1,0.6-0.1
	c0.3,0,0.6,0.1,0.8,0.3c0.2,0.2,0.4,0.5,0.4,0.8h-0.5c0-0.1,0-0.2-0.1-0.2c0-0.1-0.1-0.1-0.2-0.2c-0.1-0.1-0.1-0.1-0.2-0.1
	c-0.1,0-0.2,0-0.2,0c-0.1,0-0.2,0-0.3,0.1s-0.2,0.1-0.2,0.2c-0.1,0.2-0.2,0.5-0.2,0.8v0.3c0,0.3,0.1,0.6,0.2,0.8
	c0.1,0.1,0.2,0.2,0.3,0.2c0.1,0.1,0.2,0.1,0.3,0.1c0.1,0,0.2,0,0.3,0c0.1,0,0.2-0.1,0.3-0.2v-0.6h-0.7v-0.4h1.2L179.1,12.4z"/>
<path d="M153.8,3.8c0.3,0,0.5,0.1,0.7,0.3c0.2,0.2,0.3,0.4,0.3,0.7v1c0.6,0.1,1.2,0.3,1.6,0.8c0.4,0.5,0.6,1.1,0.6,1.7v2.6
	c0,0.3-0.1,0.6-0.2,0.9c-0.1,0.3-0.3,0.6-0.5,0.8c-0.2,0.2-0.5,0.4-0.8,0.5c-0.3,0.1-0.6,0.2-0.9,0.2c-0.3,0-0.6-0.1-0.9-0.2
	s-0.6-0.3-0.8-0.5c-0.2-0.2-0.4-0.5-0.5-0.8c-0.1-0.3-0.2-0.6-0.2-0.9V8.3c0-0.6,0.2-1.2,0.6-1.7c0.4-0.5,1-0.7,1.6-0.8v-1
	c0-0.1,0-0.1,0-0.2c0-0.1-0.1-0.1-0.1-0.2c0,0-0.1-0.1-0.2-0.1c-0.1,0-0.1,0-0.2,0c-0.1,0-0.1,0-0.2,0c-0.1,0-0.1,0.1-0.2,0.1
	c0,0.1-0.1,0.1-0.1,0.2c0,0.1,0,0.1,0,0.2v0.2c0,0.3-0.1,0.5-0.3,0.7c-0.2,0.2-0.4,0.3-0.7,0.3c-0.3,0-0.5-0.1-0.7-0.3
	c-0.2-0.2-0.3-0.4-0.3-0.7c0,0,0-0.1,0-0.1c0,0,0-0.1,0.1-0.1c0,0,0.1,0,0.1,0c0,0,0.1,0,0.1,0c0,0,0.1,0,0.1,0.1c0,0,0,0.1,0,0.1
	c0,0.1,0,0.2,0,0.2c0,0.1,0.1,0.1,0.1,0.2c0.1,0.1,0.1,0.1,0.2,0.1c0.1,0,0.1,0,0.2,0c0.1,0,0.2,0,0.2,0c0.1,0,0.1-0.1,0.2-0.1
	c0-0.1,0.1-0.1,0.1-0.2c0-0.1,0-0.1,0-0.2V4.8c0-0.3,0.1-0.5,0.3-0.7C153.3,4,153.6,3.9,153.8,3.8L153.8,3.8z M154.6,6.8
	c0,0-0.1,0-0.1,0c0,0-0.1,0-0.1,0.1c0,0,0,0.1-0.1,0.1c0,0,0,0.1,0,0.1v1.2c0,0,0,0.1,0,0.1c0,0,0,0.1,0.1,0.1c0,0,0.1,0.1,0.1,0.1
	c0,0,0.1,0,0.1,0h0.1l0.1-0.1c0,0,0.1-0.1,0.1-0.1c0,0,0-0.1,0-0.1V7.2c0,0,0-0.1,0-0.1c0,0,0-0.1-0.1-0.1l-0.1-0.1
	C154.7,6.9,154.6,6.9,154.6,6.8L154.6,6.8z"/>
<path class="st0" d="M141.7,0.5h-30c-0.3,0-0.5,0.1-0.7,0.3c-0.2,0.2-0.3,0.4-0.3,0.7v14.7c0,0.3,0.1,0.5,0.3,0.7
	c0.2,0.2,0.4,0.3,0.7,0.3h30c0.3,0,0.5-0.1,0.7-0.3c0.2-0.2,0.3-0.4,0.3-0.7V1.5c0-0.3-0.1-0.5-0.3-0.7
	C142.2,0.6,141.9,0.5,141.7,0.5L141.7,0.5z"/>
<path class="st2" d="M115.3,10.5c0,0,0.1-0.6,0.5-2c0.3-1.1,0.6-2.1,0.6-2.2l0.1-0.3h1.2c1.4,0,1.6,0,1.8,0.2c0.4,0.2,0.5,0.5,0.4,1
	c-0.1,0.4-0.4,0.8-0.8,1.1c-0.1,0.1-0.2,0.1-0.2,0.2c0,0,0,0.1,0.1,0.2c0.1,0.1,0.1,0.1,0.2,0.2c0.1,0.3,0.1,0.5,0,0.8
	c0,0.2-0.1,0.4-0.1,0.6v0.3h-0.6c-0.2,0-0.4,0-0.6,0c-0.1-0.1-0.1-0.2,0-0.6c0.1-0.4,0.1-0.6,0-0.7c-0.1-0.1-0.2-0.2-0.6-0.2
	s-0.4,0-0.4,0s-0.1,0.3-0.3,0.9l-0.2,0.6H116C115.8,10.4,115.6,10.4,115.3,10.5L115.3,10.5z M118.3,8c0.3-0.1,0.4-0.3,0.4-0.6
	c0-0.1,0-0.1,0-0.2c-0.1-0.1-0.3-0.1-0.8-0.1h-0.4l-0.1,0.2c-0.1,0.2-0.1,0.4-0.2,0.7c0,0.1,0,0.1,0.1,0.1C117.8,8,118.1,8,118.3,8
	L118.3,8z M120.3,10.6c-0.2-0.1-0.3-0.2-0.4-0.3c-0.1-0.3,0-0.8,0.4-2.3c0.1-0.3,0.2-0.6,0.2-0.6c0,0,0.1,0,0.5,0c0.2,0,0.3,0,0.5,0
	h0.1l-0.1,0.3c-0.2,0.6-0.4,1.4-0.4,1.7c0,0.3,0,0.3,0,0.3c0,0.1,0.4,0.2,0.6,0.1s0.3-0.3,0.8-1.9c0-0.2,0.1-0.3,0.2-0.4l0.1-0.1
	h0.5c0.4,0,0.5,0,0.5,0c0,0-0.6,2.2-0.8,3.1v0.1h-1c0-0.1,0-0.1,0.1-0.1c0.1-0.3,0-0.3-0.4,0c-0.2,0.2-0.5,0.3-0.8,0.3
	C120.6,10.7,120.4,10.7,120.3,10.6L120.3,10.6z M123.6,10.5c0.1-0.8,0.3-1.5,0.6-2.2l0.6-2.2h1c1.3,0,1.6,0,1.8,0.2
	c0.2,0.1,0.3,0.2,0.4,0.4c0.1,0.2,0.1,0.4,0.1,0.6c0,0.2,0,0.4-0.1,0.5c-0.1,0.3-0.3,0.6-0.5,0.8c-0.2,0.2-0.5,0.4-0.8,0.5
	c-0.2,0-0.5,0.1-0.7,0.1c-0.9,0.1-0.9,0-0.9,0.2c-0.1,0.2-0.1,0.4-0.2,0.7l-0.2,0.6h-0.6C124,10.5,123.8,10.5,123.6,10.5L123.6,10.5
	z M126.3,8.1c0.1,0,0.2,0,0.3-0.1c0.1-0.1,0.2-0.1,0.2-0.2c0.1-0.1,0.1-0.2,0.1-0.3c0-0.1,0-0.2,0-0.3c-0.1-0.1-0.2-0.2-0.7-0.2
	c-0.2,0-0.3,0-0.5,0c-0.1,0.3-0.2,0.6-0.2,0.9c0,0,0,0.1,0,0.1C125.8,8.1,126.1,8.1,126.3,8.1L126.3,8.1z M128,10.6
	c-0.3-0.1-0.4-0.4-0.3-0.9c0.2-0.7,0.5-0.9,1.7-1.1c0.7-0.1,0.9-0.2,1-0.5c0.1-0.3-0.1-0.3-0.4-0.3c-0.1,0-0.2,0-0.3,0
	c-0.1,0-0.2,0.1-0.2,0.2l-0.1,0.1H129c-0.5,0-0.6,0-0.6-0.1c0.1-0.2,0.2-0.3,0.3-0.5c0.2-0.2,0.4-0.3,0.7-0.3c0.6-0.2,1.2-0.2,1.8,0
	c0.2,0.1,0.3,0.2,0.4,0.4c0.1,0.1,0,0.3-0.3,1.5c-0.1,0.6-0.3,1.2-0.3,1.2v0.1h-0.4h-0.5H130l-0.1-0.1c-0.1-0.2-0.1-0.2-0.5,0
	c-0.3,0.1-0.6,0.2-0.9,0.2C128.4,10.6,128.3,10.6,128,10.6L128,10.6z M129.7,9.9c0.1-0.1,0.2-0.2,0.3-0.3c0.1-0.1,0.1-0.3,0.1-0.4
	V9.1h-0.2c-0.3,0-0.6,0.1-0.8,0.3c-0.1,0-0.1,0.1-0.2,0.1c0,0.1-0.1,0.1-0.1,0.2c0,0.1,0,0.2,0.1,0.2C129.2,10,129.4,10,129.7,9.9
	L129.7,9.9z M131.3,11.9c-0.1,0-0.1-0.1,0-0.4c0.1-0.3,0.1-0.4,0.4-0.5c0.3,0,0.4-0.1,0.5-0.2c0.1-0.7,0.1-1.5,0-2.2
	c0-0.4,0-0.8,0-1.3c0,0,0.2,0,0.6,0h0.5v1c0,0.3,0,0.7,0,1c0.1,0.1,0.3-0.3,1.1-1.8l0.1-0.2h0.5c0.2,0,0.3,0,0.5,0
	c0,0-0.7,1.3-1.4,2.5c-1,1.7-1.2,2-1.7,2.1C132,11.9,131.7,11.9,131.3,11.9L131.3,11.9z"/>
<path class="st3" d="M135.8,11.5l1.4-5.1l1.3,2.6L135.8,11.5z"/>
<path class="st4" d="M134.9,11.5l1.4-5.1l1.3,2.6L134.9,11.5z"/>
<path class="st0" d="M105,0.7H75c-0.3,0-0.5,0.1-0.7,0.3C74.1,1.2,74,1.4,74,1.7v14.7c0,0.3,0.1,0.5,0.3,0.7
	c0.2,0.2,0.4,0.3,0.7,0.3h30c0.3,0,0.5-0.1,0.7-0.3c0.2-0.2,0.3-0.4,0.3-0.7V1.7c0-0.3-0.1-0.5-0.3-0.7C105.5,0.8,105.3,0.7,105,0.7
	L105,0.7z"/>
<path class="st5" d="M86.5,14c1,0,2-0.3,2.8-0.8c0.8-0.5,1.5-1.3,1.8-2.2C91.5,10,91.6,9,91.4,8c-0.2-1-0.7-1.9-1.4-2.6
	c-0.7-0.7-1.6-1.2-2.6-1.4c-1-0.2-2-0.1-2.9,0.3c-0.9,0.4-1.7,1-2.2,1.8C81.8,7,81.5,8,81.5,9c0,1.3,0.5,2.6,1.5,3.5
	C83.9,13.5,85.1,14,86.5,14L86.5,14z"/>
<path class="st6" d="M93.5,14c1,0,1.9-0.3,2.8-0.9c0.8-0.6,1.4-1.3,1.8-2.3C98.5,10,98.6,9,98.4,8c-0.2-1-0.7-1.9-1.4-2.5
	c-0.7-0.7-1.6-1.2-2.6-1.4c-1-0.2-2-0.1-2.9,0.3c-0.9,0.4-1.7,1-2.2,1.8C88.8,7,88.5,8,88.5,9c0,0.7,0.1,1.3,0.4,1.9
	c0.3,0.6,0.6,1.2,1.1,1.6c0.5,0.5,1,0.8,1.6,1.1C92.2,13.9,92.9,14,93.5,14L93.5,14z"/>
<path class="st7" d="M90,12.6c0.9-1,1.4-2.2,1.5-3.6c-0.1-1.3-0.6-2.6-1.5-3.6c-0.5,0.5-0.9,1-1.1,1.6c-0.3,0.6-0.4,1.3-0.4,2
	c0,0.7,0.1,1.3,0.4,2C89.1,11.6,89.5,12.1,90,12.6L90,12.6z"/>
<path class="st0" d="M68.3,0.7h-30c-0.3,0-0.5,0.1-0.7,0.3c-0.2,0.2-0.3,0.4-0.3,0.7v14.7c0,0.3,0.1,0.5,0.3,0.7
	c0.2,0.2,0.4,0.3,0.7,0.3h30c0.3,0,0.5-0.1,0.7-0.3c0.2-0.2,0.3-0.4,0.3-0.7V1.7c0-0.3-0.1-0.5-0.3-0.7C68.8,0.8,68.6,0.7,68.3,0.7
	L68.3,0.7z"/>
<path class="st8" d="M49.8,14c1,0,1.9-0.3,2.8-0.9c0.8-0.6,1.4-1.3,1.8-2.3C54.7,10,54.8,9,54.6,8c-0.2-1-0.7-1.9-1.4-2.5
	c-0.7-0.7-1.6-1.2-2.6-1.4c-1-0.2-2-0.1-2.9,0.3c-0.9,0.4-1.7,1-2.2,1.8C45,7,44.7,8,44.7,9c0,0.7,0.1,1.3,0.4,1.9
	c0.3,0.6,0.6,1.2,1.1,1.6c0.5,0.5,1,0.8,1.6,1.1C48.5,13.9,49.1,14,49.8,14L49.8,14z"/>
<path class="st9" d="M56.9,14c1,0,2-0.3,2.8-0.8c0.8-0.5,1.5-1.3,1.8-2.2C61.9,10,62,9,61.8,8c-0.2-1-0.7-1.9-1.4-2.6
	c-0.7-0.7-1.6-1.2-2.6-1.4c-1-0.2-2-0.1-2.9,0.3c-0.9,0.4-1.7,1-2.2,1.8C52.2,7,51.9,8,51.9,9c0,1.3,0.5,2.6,1.5,3.5
	C54.3,13.5,55.5,14,56.9,14L56.9,14z"/>
<path class="st10" d="M53.3,12.6c0.9-1,1.4-2.2,1.5-3.6c-0.1-1.3-0.6-2.6-1.5-3.6c-0.5,0.5-0.9,1-1.1,1.6c-0.3,0.6-0.4,1.3-0.4,2
	c0,0.7,0.1,1.3,0.4,1.9C52.5,11.6,52.8,12.1,53.3,12.6L53.3,12.6z"/>
<path class="st0" d="M31.7,0.7h-30C1.4,0.7,1.2,0.8,1,1C0.8,1.2,0.7,1.4,0.7,1.7v14.7c0,0.3,0.1,0.5,0.3,0.7
	c0.2,0.2,0.4,0.3,0.7,0.3h30c0.3,0,0.5-0.1,0.7-0.3c0.2-0.2,0.3-0.4,0.3-0.7V1.7c0-0.3-0.1-0.5-0.3-0.7C32.2,0.8,31.9,0.7,31.7,0.7
	L31.7,0.7z"/>
<path class="st11" d="M14,5.8l-2.8,6.6H9.4L8.1,7.1C8.1,7,8,6.9,7.9,6.8C7.9,6.7,7.8,6.6,7.7,6.5C7.1,6.3,6.6,6.1,6,6V5.8h2.9
	c0.2,0,0.4,0.1,0.5,0.2c0.1,0.1,0.2,0.3,0.3,0.5l0.7,3.8l1.8-4.5H14z M21,10.2c0-1.7-2.4-1.8-2.4-2.6c0-0.2,0.2-0.5,0.7-0.5
	c0.6-0.1,1.1,0,1.7,0.3L21.3,6c-0.5-0.2-1-0.3-1.6-0.3c-1.7,0-2.9,0.9-2.9,2.2c0,0.9,0.8,1.5,1.5,1.8c0.6,0.3,0.9,0.5,0.9,0.8
	c0,0.4-0.5,0.6-1,0.6c-0.6,0-1.2-0.1-1.7-0.4l-0.3,1.4c0.6,0.2,1.2,0.4,1.9,0.3C19.9,12.5,21,11.6,21,10.2L21,10.2z M25.4,12.4H27
	l-1.4-6.6h-1.4c-0.2,0-0.3,0-0.4,0.1c-0.1,0.1-0.2,0.2-0.3,0.4l-2.5,6.1h1.8l0.4-1h2.2L25.4,12.4z M23.5,10l0.9-2.5l0.5,2.5H23.5z
	 M16.4,5.8L15,12.4h-1.7l1.4-6.6H16.4z"/>
</svg>
